<svg width="1550" height="152" viewBox="0 0 1550 152" fill="none" xmlns="http://www.w3.org/2000/svg">
<path fill-rule="evenodd" clip-rule="evenodd" d="M425 2.00001H350V77C350 118.421 383.579 152 425 152C466.421 152 500 118.421 500 77V2.00001H425Z" fill="white"/>
<path fill-rule="evenodd" clip-rule="evenodd" d="M1125 150L1200 150L1200 75C1200 33.5787 1166.42 1.23233e-05 1125 8.70208e-06C1083.58 5.08091e-06 1050 33.5786 1050 75L1050 150L1125 150Z" fill="white"/>
<path d="M774.5 1.14441e-05L861 150H688L774.5 1.14441e-05Z" fill="white"/>
<path fill-rule="evenodd" clip-rule="evenodd" d="M1549.84 82C1547.26 121.09 1514.74 152 1475 152C1433.58 152 1400 118.421 1400 77C1400 35.5787 1433.58 2.00001 1475 2.00001C1496.98 2.00001 1516.76 11.4575 1530.47 26.5256L1475 82H1549.84Z" fill="white"/>
<path fill-rule="evenodd" clip-rule="evenodd" d="M150 2.00002L6.55671e-06 2.00001L0 152H150L75 77L150 2.00002Z" fill="white"/>
</svg>
